<svg data-v-423bf9ae="" xmlns="http://www.w3.org/2000/svg" viewBox="0 0 391.18959553072625 170" class="iconAbove"><!----><!----><!----><g data-v-423bf9ae="" id="0abc06b2-00fc-414b-b291-4146099e5618" fill="#361414" transform="matrix(4.325882939406962,0,0,4.325882939406962,-2.89834614686427,96.59861459401142)"><path d="M4.20 13.94C6.27 13.94 7.73 12.08 7.73 9.11C7.73 6.17 6.27 4.37 4.20 4.37C2.13 4.37 0.67 6.16 0.67 9.11C0.67 12.08 2.13 13.94 4.20 13.94ZM4.20 12.92C2.80 12.92 1.88 11.42 1.88 9.11C1.88 6.82 2.80 5.39 4.20 5.39C5.60 5.39 6.52 6.82 6.52 9.11C6.52 11.42 5.60 12.92 4.20 12.92ZM10.44 13.78L11.59 13.78L11.59 9.56C12.40 8.06 13.37 7.50 14.39 7.50C14.92 7.50 15.18 7.57 15.65 7.76L15.92 6.76C15.50 6.54 15.08 6.47 14.57 6.47C13.31 6.47 12.25 7.20 11.54 8.34L11.49 8.34L11.40 6.64L10.44 6.64ZM20.72 16.95C22.74 16.95 23.90 15.85 23.90 13.78L23.90 6.64L22.97 6.64L22.88 7.43L22.83 7.43C22.23 6.83 21.55 6.47 20.75 6.47C19.10 6.47 17.64 7.87 17.64 10.11C17.64 12.36 18.83 13.71 20.58 13.71C21.42 13.71 22.26 13.23 22.79 12.64L22.78 13.78C22.76 15.44 22.02 16.03 20.72 16.03C20.03 16.03 19.25 15.83 18.55 14.94L17.99 15.64C18.87 16.69 19.84 16.95 20.72 16.95ZM20.83 12.75C19.59 12.75 18.82 11.72 18.82 10.09C18.82 8.54 19.80 7.43 20.94 7.43C21.55 7.43 22.13 7.67 22.75 8.29L22.75 11.66C22.13 12.38 21.49 12.75 20.83 12.75ZM28.64 13.96C29.61 13.96 30.58 13.41 31.33 12.80L31.37 12.80L31.47 13.78L32.41 13.78L32.41 9.38C32.41 7.63 31.51 6.47 29.65 6.47C28.46 6.47 27.45 7.03 26.91 7.49L27.36 8.29C27.85 7.87 28.57 7.42 29.46 7.42C30.77 7.42 31.23 8.27 31.26 9.25C27.75 9.56 26.33 10.33 26.33 11.94C26.33 13.22 27.37 13.96 28.64 13.96ZM28.95 13.03C28.17 13.03 27.45 12.68 27.45 11.86C27.45 10.89 28.35 10.28 31.26 10.02L31.26 11.94C30.49 12.64 29.72 13.03 28.95 13.03ZM34.90 13.78L36.05 13.78L36.05 8.79C36.85 7.90 37.39 7.46 38.21 7.46C39.33 7.46 39.77 8.12 39.77 9.49L39.77 13.78L40.92 13.78L40.92 9.34C40.92 7.46 40.18 6.47 38.57 6.47C37.51 6.47 36.72 7.07 36.01 7.88L35.95 7.88L35.85 6.64L34.90 6.64ZM46.27 13.94C48.29 13.94 49.52 12.78 49.52 11.31C49.52 9.94 48.61 9.34 47.49 8.85L46.20 8.29C45.42 7.95 44.56 7.63 44.56 6.75C44.56 5.91 45.28 5.39 46.38 5.39C47.29 5.39 47.99 5.73 48.59 6.26L49.21 5.50C48.54 4.83 47.53 4.37 46.38 4.37C44.63 4.37 43.37 5.40 43.37 6.82C43.37 8.16 44.44 8.83 45.36 9.20L46.68 9.77C47.61 10.18 48.33 10.46 48.33 11.41C48.33 12.32 47.59 12.92 46.28 12.92C45.28 12.92 44.32 12.46 43.64 11.76L42.94 12.57C43.76 13.41 44.93 13.94 46.27 13.94ZM51.70 13.78L52.85 13.78L52.85 8.79C53.65 7.90 54.19 7.46 55.01 7.46C56.13 7.46 56.57 8.12 56.57 9.49L56.57 13.78L57.72 13.78L57.72 9.34C57.72 7.46 56.98 6.47 55.37 6.47C54.31 6.47 53.52 7.07 52.79 7.88L52.85 6.17L52.85 3.60L51.70 3.60ZM63.28 5.04C63.83 5.04 64.26 4.65 64.26 4.07C64.26 3.49 63.83 3.08 63.28 3.08C62.73 3.08 62.30 3.49 62.30 4.07C62.30 4.65 62.73 5.04 63.28 5.04ZM60.20 13.78L66.64 13.78L66.64 12.82L63.99 12.82L63.99 6.64L60.20 6.64L60.20 7.57L62.85 7.57L62.85 12.82L60.20 12.82ZM71.82 13.96C72.91 13.96 73.77 13.57 74.44 13.12L74.03 12.35C73.40 12.77 72.76 13.02 71.96 13.02C70.48 13.02 69.41 12.03 69.36 10.49L74.68 10.49C74.70 10.30 74.72 10.05 74.72 9.81C74.72 7.80 73.57 6.47 71.62 6.47C69.86 6.47 68.17 7.90 68.17 10.22C68.17 12.56 69.80 13.96 71.82 13.96ZM69.34 9.65C69.52 8.22 70.53 7.38 71.64 7.38C72.90 7.38 73.65 8.19 73.65 9.65ZM81.28 13.96C82.03 13.96 82.50 13.76 83.12 13.52L82.82 12.66C82.32 12.89 81.93 13.01 81.54 13.01C80.72 13.01 80.21 12.54 80.21 11.49L80.21 3.60L76.73 3.60L76.73 4.54L79.06 4.54L79.06 11.41C79.06 13.09 79.84 13.96 81.28 13.96ZM87.79 13.96C88.63 13.96 89.45 13.43 90.01 12.82L90.05 12.82L90.15 13.78L91.10 13.78L91.10 3.60L89.95 3.60L89.95 6.06L89.99 7.41C89.36 6.82 88.76 6.47 87.93 6.47C86.32 6.47 84.84 7.91 84.84 10.22C84.84 12.60 86.02 13.96 87.79 13.96ZM88.03 12.99C86.77 12.99 86.03 11.93 86.03 10.21C86.03 8.57 86.98 7.43 88.16 7.43C88.75 7.43 89.33 7.67 89.95 8.29L89.95 11.89C89.35 12.61 88.70 12.99 88.03 12.99Z"></path></g><defs data-v-423bf9ae=""><linearGradient data-v-423bf9ae="" gradientTransform="rotate(25)" id="7d97f93b-10c4-49c3-94ae-785bbed27b05" x1="0%" y1="0%" x2="100%" y2="0%"><stop data-v-423bf9ae="" offset="0%" style="stop-color: rgb(240, 0, 121); stop-opacity: 1;"></stop><stop data-v-423bf9ae="" offset="100%" style="stop-color: rgb(242, 160, 65); stop-opacity: 1;"></stop></linearGradient></defs><g data-v-423bf9ae="" id="b603956a-7f03-4e0f-9b08-20b950691ef9" transform="matrix(1.0377450731065538,0,0,1.0377450731065538,143.58903394525288,-2.5701625208777017)" stroke="none" fill="url(#7d97f93b-10c4-49c3-94ae-785bbed27b05)"><path d="M48.989 30.535l.009.009-.103.09-.438.464-.045-.039-8.183 7.208-5 8.508.406 11.442 2.513 8.249-4.399 9.159-3.753-1.646 3.841-7.995-.261-1.253-.72.304-4.223 5.437-2.209-1.569 4.656-5.989 1.946-.823-1.551-3.641-.716-7.732-3.148 5.713-7.471 8.168-.053 5.927-2.754-.026.037-4.018-5.641 2.204-1.043-2.434 6.465-2.527 8.367-9.019 3.494-6.444-5.291-2.068-1.516.682-1.65 5.286-3.835 5.515-2.292-1.457 3.717-5.342.756-2.512-6.587 2.965-1.172-2.38 4.304-1.921-4.664-1.377.813-2.512 7.562 2.233 3.728-1.663-1.92-1.743-5.005-1.397.772-2.524 5.646 1.577 3.812 3.46 5.256 2.076 5.505-9.372.433-.382-4.951-4.281-3.686-5.007 2.251-1.513 2.286 3.104 1.037-3.891 2.668.649-1.535 5.759 3.958 3.393 6.554-5.773 2.734-1.837c-1.044-2.967-2.027-6.921-2.238-10.683-.365-6.493-1.586-12.625-8.499-12.434-4.657.13-8.492 3.647-11.003 6.371-2.846 3.085-6.661 6.386-8.7 9.626-4.72 7.498-8.069 14.394-10.963 22.695C4.4 49.894 2.962 59.743 1.839 70.21c-.796 7.435-1.357 16.74-.152 24.486.405 2.594 8.553 1.394 11.383.688 7.914-1.969 13.787-5.023 20.26-8.517 3.256-1.758 6.463-3.632 8.196-6.219.946-1.407 1.759-2.981 2.657-4.529.88-1.518 1.963-2.966 2.656-4.526 1.495-3.369 2.066-7.366 2.201-12.281.129-4.725-.294-9.487.228-13.969.252-2.16.584-4.331.683-6.524.065-1.447-.459-5.479-.936-8.312l-.026.028zM99.144 69.245c-1.271-12.156-3.308-21.26-5.89-28.629-2.852-8.143-7.148-15.419-11.701-22.643-2.143-3.394-5.034-6.026-7.983-9.062-2.63-2.711-5.247-5.888-10.264-5.717-5.766.194-7.602 7.084-8.077 12.647l-2.396 9.532 2.941 2.622.027-.02 5.357 6.491 4.659-3.289L69 27.197l3.28 2.394-3.536 4.425-5.353 3.779 4.055 8.634 7.353.755 10.173-4.215 1.097 2.413-7.579 3.141.152.057 2.803 1.862 4.606-.475.296 2.614-1.455.149 1.811 1.206-1.572 2.157-4.686-3.113.934 2.718 2.767 4.354-2.35 1.366-2.984-4.76-2.057-5.992-7.723-.866 2.602 5.542 6.449 9.742 4.833 3.333-2.082 2.917-2.657-1.847-.21 2.982-2.747-.177.324-4.638-2.076-3.14-5.521-7.386-1.142-2.458-1.035 2.102-.457 2.179 1.977 4.74.896 4.35-2.702.507-.858-4.174-1.159-2.205-1.288 3.588.726 2.65-2.663.666-.936-3.42 1.629-4.523 2.112-4.749 1.066-7.485-5.061-10.71-5.934-7.104-.077.051-.043-.059-.357 2.441c-.268-.4-.518 6.817-.013 11.169.521 4.456.116 9.285.224 13.97.115 4.878.741 8.827 2.239 12.205.705 1.598 1.673 3.096 2.531 4.605.896 1.566 1.73 3.134 2.687 4.528 1.823 2.667 4.875 5.831 8.044 7.572 3.132 1.72 6.27 1.988 9.399 3.404 3.216 1.454 6.457 1.541 10.51 2.583 1.594.412 3.231.468 4.471 1.514.957.808 6.315-.191 6.634-2.354 1.142-7.728.534-16.221-.223-23.466z"></path></g><!----></svg>